<?xml version="1.0" encoding="utf-8"?>
<!-- Generator: Adobe Illustrator 18.0.0, SVG Export Plug-In . SVG Version: 6.00 Build 0)  -->
<!DOCTYPE svg PUBLIC "-//W3C//DTD SVG 1.1//EN" "http://www.w3.org/Graphics/SVG/1.1/DTD/svg11.dtd">
<svg version="1.1" id="Capa_1" xmlns="http://www.w3.org/2000/svg" xmlns:xlink="http://www.w3.org/1999/xlink" x="0px" y="0px"
	 viewBox="0 0 595.3 420" enable-background="new 0 0 595.3 420" xml:space="preserve">
<g>
	<g>
		<g>
			<path d="M263.6,278.8c1.5,0.9,2.7,2.1,3.6,3.6c0.9,1.5,1.3,3.2,1.3,5.1c0,1.9-0.4,3.6-1.3,5.1c-0.8,1.5-2,2.7-3.5,3.6
				c-1.5,0.9-3.1,1.3-4.9,1.3c-1.6,0-3-0.3-4.3-1c-1.3-0.7-2.4-1.6-3.2-2.7v10.5c0,0.4-0.1,0.7-0.4,1c-0.3,0.3-0.6,0.4-1,0.4
				c-0.4,0-0.7-0.1-1-0.4c-0.3-0.3-0.4-0.6-0.4-1v-8c0-0.1,0-0.2,0-0.3v-8.4c0-1.9,0.4-3.6,1.3-5.1c0.9-1.5,2.1-2.7,3.6-3.6
				c1.5-0.9,3.2-1.3,5.1-1.3C260.4,277.5,262.1,277.9,263.6,278.8z M262.2,294c1.1-0.6,2-1.5,2.6-2.7c0.6-1.1,1-2.4,1-3.8
				c0-1.4-0.3-2.7-1-3.8c-0.6-1.1-1.5-2-2.6-2.7c-1.1-0.7-2.3-1-3.7-1c-1.4,0-2.6,0.3-3.7,1c-1.1,0.7-2,1.6-2.6,2.7
				c-0.6,1.1-1,2.4-1,3.8c0,0.4,0,0.7,0,0.9c0,0,0,0.1,0,0.2c0.2,1.9,1,3.4,2.3,4.6c1.3,1.2,2.9,1.8,4.8,1.8
				C259.9,294.9,261.1,294.6,262.2,294z"/>
			<path d="M292.1,278.8c1.5,0.9,2.7,2.1,3.6,3.6c0.9,1.5,1.3,3.2,1.3,5.1v8.4c0,0.4-0.1,0.7-0.4,1c-0.3,0.3-0.6,0.4-1,0.4
				c-0.4,0-0.7-0.1-1-0.4c-0.3-0.3-0.4-0.6-0.4-1v-2.2c-0.8,1.1-1.9,2.1-3.2,2.7s-2.7,1-4.3,1c-1.8,0-3.5-0.4-4.9-1.3
				c-1.5-0.9-2.6-2.1-3.5-3.6c-0.8-1.5-1.3-3.2-1.3-5.1c0-1.9,0.4-3.6,1.3-5.1c0.9-1.5,2.1-2.7,3.6-3.6c1.5-0.9,3.2-1.3,5.1-1.3
				C288.8,277.5,290.5,277.9,292.1,278.8z M290.7,294c1.1-0.6,2-1.5,2.6-2.7c0.6-1.1,1-2.4,1-3.8c0-1.4-0.3-2.7-1-3.8
				c-0.6-1.1-1.5-2-2.6-2.7c-1.1-0.7-2.3-1-3.7-1c-1.4,0-2.6,0.3-3.7,1c-1.1,0.7-2,1.6-2.6,2.7c-0.6,1.1-1,2.4-1,3.8
				c0,1.4,0.3,2.7,1,3.8c0.6,1.1,1.5,2,2.6,2.7c1.1,0.6,2.4,1,3.7,1C288.3,294.9,289.6,294.6,290.7,294z"/>
			<path d="M325.4,279v8.4c0,1.9-0.4,3.6-1.3,5.1c-0.9,1.5-2.1,2.7-3.6,3.6c-1.5,0.9-3.2,1.3-5.1,1.3c-1.9,0-3.6-0.4-5.1-1.3
				c-1.5-0.9-2.7-2.1-3.6-3.6c-0.9-1.5-1.3-3.2-1.3-5.1c0-1.9,0.4-3.6,1.3-5.1c0.8-1.5,2-2.7,3.5-3.6c1.5-0.9,3.1-1.3,4.9-1.3
				c1.6,0,3,0.3,4.3,1c1.3,0.7,2.4,1.6,3.2,2.7v-10.5c0-0.4,0.1-0.7,0.4-1c0.3-0.3,0.6-0.4,1-0.4c0.4,0,0.7,0.1,1,0.4
				c0.3,0.3,0.4,0.6,0.4,1v8C325.4,278.8,325.4,278.9,325.4,279z M319.1,294c1.1-0.7,2-1.6,2.6-2.7c0.6-1.1,1-2.4,1-3.8
				c0-0.4,0-0.7,0-0.9c0,0,0-0.1,0-0.2c-0.2-1.9-1-3.4-2.3-4.6s-2.9-1.8-4.8-1.8c-1.4,0-2.6,0.3-3.7,1c-1.1,0.6-2,1.5-2.6,2.7
				c-0.6,1.1-1,2.4-1,3.8c0,1.4,0.3,2.7,1,3.8c0.6,1.1,1.5,2,2.6,2.7c1.1,0.7,2.4,1,3.7,1C316.8,294.9,318,294.6,319.1,294z"/>
			<path d="M349.1,278.7c1.4,0.8,2.4,2,3.2,3.4c0.8,1.5,1.1,3.1,1.1,5c0,0.4-0.1,0.7-0.4,0.9c-0.2,0.2-0.6,0.3-0.9,0.3h-14.5
				c0.2,2,1,3.6,2.3,4.8c1.3,1.2,3,1.8,5,1.8c0.9,0,1.7-0.1,2.6-0.4c0.9-0.3,1.6-0.7,2.1-1.1c0.3-0.2,0.6-0.4,1-0.4
				c0.3,0,0.5,0.1,0.8,0.3c0.3,0.3,0.5,0.6,0.5,1c0,0.3-0.1,0.6-0.4,0.8c-0.8,0.7-1.8,1.2-3,1.7c-1.2,0.4-2.4,0.7-3.5,0.7
				c-1.9,0-3.6-0.4-5.1-1.3c-1.5-0.8-2.7-2-3.5-3.6c-0.8-1.5-1.3-3.2-1.3-5.1c0-1.9,0.4-3.7,1.2-5.2c0.8-1.5,1.9-2.7,3.3-3.6
				c1.4-0.8,3-1.3,4.9-1.3C346.1,277.5,347.7,277.9,349.1,278.7z M339.9,281.6c-1.2,1.1-1.9,2.6-2.2,4.4h13.1
				c-0.2-1.8-0.9-3.3-2-4.4c-1.1-1.1-2.6-1.7-4.4-1.7C342.6,279.9,341,280.5,339.9,281.6z"/>
			<path d="M362.9,295.5c-0.9-1.2-1.4-2.6-1.4-4.5v-20.4c0-0.4,0.1-0.7,0.4-1c0.3-0.3,0.6-0.4,1-0.4c0.4,0,0.7,0.1,1,0.4
				c0.3,0.3,0.4,0.6,0.4,1v20.4c0,1,0.2,1.9,0.6,2.5c0.4,0.6,1,1,1.6,1h0.9c0.4,0,0.6,0.1,0.9,0.4c0.2,0.3,0.3,0.6,0.3,1
				c0,0.4-0.1,0.7-0.4,1c-0.3,0.3-0.7,0.4-1.2,0.4h-0.5C365,297.3,363.8,296.7,362.9,295.5z"/>
			<path d="M394.9,296.1c-1.5-0.9-2.6-2.1-3.5-3.6c-0.8-1.5-1.3-3.2-1.3-5.1c0-1.9,0.4-3.6,1.2-5.1c0.8-1.5,1.9-2.7,3.4-3.6
				c1.4-0.9,3-1.3,4.8-1.3c3,0,5.4,1.1,7.3,3.4c0.2,0.2,0.3,0.5,0.3,0.8c0,0.4-0.2,0.7-0.6,1c-0.2,0.1-0.4,0.2-0.7,0.2
				c-0.4,0-0.7-0.2-1-0.5c-0.7-0.8-1.5-1.4-2.4-1.8c-0.9-0.4-1.8-0.6-2.9-0.6c-1.3,0-2.5,0.3-3.5,1c-1,0.6-1.8,1.5-2.4,2.7
				c-0.6,1.1-0.8,2.4-0.8,3.9c0,1.4,0.3,2.7,0.9,3.8c0.6,1.1,1.4,2,2.5,2.7c1.1,0.6,2.3,1,3.7,1c1.9,0,3.5-0.5,4.6-1.5
				c0.3-0.3,0.6-0.4,1-0.4c0.3,0,0.6,0.1,0.8,0.3c0.3,0.3,0.5,0.6,0.5,1c0,0.3-0.1,0.6-0.4,0.8c-1.7,1.6-3.9,2.4-6.5,2.4
				C398,297.4,396.4,297,394.9,296.1z"/>
			<path d="M417.4,295.5c-0.9-1.2-1.4-2.6-1.4-4.5v-20.4c0-0.4,0.1-0.7,0.4-1c0.3-0.3,0.6-0.4,1-0.4c0.4,0,0.7,0.1,1,0.4
				c0.3,0.3,0.4,0.6,0.4,1v20.4c0,1,0.2,1.9,0.6,2.5c0.4,0.6,1,1,1.6,1h0.9c0.4,0,0.6,0.1,0.9,0.4c0.2,0.3,0.3,0.6,0.3,1
				c0,0.4-0.1,0.7-0.4,1c-0.3,0.3-0.7,0.4-1.2,0.4h-0.5C419.5,297.3,418.3,296.7,417.4,295.5z"/>
			<path d="M448.4,278c0.3,0.3,0.4,0.6,0.4,1v16.9c0,0.4-0.1,0.7-0.4,1c-0.3,0.3-0.6,0.4-1,0.4c-0.4,0-0.7-0.1-1-0.4
				c-0.3-0.3-0.4-0.6-0.4-1v-1.2c-0.8,0.9-1.7,1.6-2.9,2.1c-1.1,0.5-2.3,0.8-3.7,0.8c-1.7,0-3.2-0.4-4.6-1.1
				c-1.4-0.7-2.4-1.8-3.2-3.1c-0.8-1.4-1.1-3-1.1-4.9V279c0-0.4,0.1-0.7,0.4-1c0.3-0.3,0.6-0.4,1-0.4c0.4,0,0.7,0.1,1,0.4
				c0.3,0.3,0.4,0.6,0.4,1v9.3c0,2.1,0.6,3.7,1.8,4.9c1.2,1.1,2.7,1.7,4.6,1.7c1.2,0,2.2-0.2,3.2-0.7c0.9-0.5,1.7-1.1,2.2-1.9
				c0.5-0.8,0.8-1.7,0.8-2.7V279c0-0.4,0.1-0.7,0.4-1c0.3-0.3,0.6-0.4,1-0.4C447.8,277.6,448.1,277.8,448.4,278z"/>
			<path d="M474.6,278.8c1.5,0.9,2.6,2.1,3.5,3.6c0.8,1.5,1.3,3.2,1.3,5.1c0,1.9-0.4,3.6-1.3,5.1c-0.9,1.5-2.1,2.7-3.6,3.6
				c-1.5,0.9-3.2,1.3-5.1,1.3c-1.9,0-3.6-0.4-5.1-1.3c-1.5-0.9-2.7-2.1-3.6-3.6c-0.9-1.5-1.3-3.2-1.3-5.1V279c0-0.1,0-0.3,0-0.3v-8
				c0-0.4,0.1-0.7,0.4-1c0.3-0.3,0.6-0.4,1-0.4c0.4,0,0.7,0.1,1,0.4c0.3,0.3,0.4,0.6,0.4,1v10.5c0.8-1.1,1.9-2.1,3.2-2.7
				c1.3-0.7,2.7-1,4.3-1C471.5,277.5,473.1,277.9,474.6,278.8z M473.1,294c1.1-0.7,2-1.6,2.6-2.7c0.6-1.1,1-2.4,1-3.8
				c0-1.4-0.3-2.7-1-3.8c-0.6-1.1-1.5-2-2.6-2.7c-1.1-0.6-2.3-1-3.7-1c-1.9,0-3.5,0.6-4.8,1.8s-2.1,2.7-2.3,4.6c0,0.1,0,0.1,0,0.2
				c0,0.2,0,0.5,0,0.9c0,1.4,0.3,2.7,1,3.8c0.6,1.1,1.5,2,2.6,2.7c1.1,0.7,2.3,1,3.7,1C470.8,294.9,472,294.6,473.1,294z"/>
		</g>
	</g>
	<path fill="#FDCE00" d="M494.2,245c3.3-6.9,6.8-13.7,9.8-20.7c6.8-16,10.3-32.8,8.9-50.4c-1.6-19.9-9-37-21.7-51.5
		C476,105,456.9,95,436.1,88.7c-21.1-6.4-42.8-8.4-64.6-7.1c-31.1,2-61.2,9.6-90.1,22.5c-21.2,9.4-41.2,21.3-59.5,36.3
		c-19.6,16-36.7,34.8-49.4,58c-0.2,0.4-0.6,0.8-0.9,1.1c-0.3-0.2-0.5-0.3-0.8-0.5c2.5-4.8,4.8-9.7,7.6-14.3
		c9.8-16.8,22.2-31.2,36.1-44.1c27.4-25.4,58.6-43.6,92.4-56.7c26.7-10.3,54.1-17.1,82.4-19.2c27.3-2,54.3-0.2,80.5,9.1
		c17.4,6.1,33.5,15.2,46.1,30.2c15.6,18.5,21.7,40.3,18.1,65.3c-3.5,24.4-14.4,44.8-28.6,63.3c-3.4,4.5-7.1,8.7-10.7,13
		C494.5,245.3,494.4,245.1,494.2,245z"/>
	<g>
		<path d="M85.5,177v52.9c0,16.3-11.1,24.1-25.2,24.1c-1.7,0-3.2-0.1-4.8-0.4v-8.6c1.3,0.2,2.7,0.4,4.2,0.4
			c9.8,0,15.9-6.4,15.9-15.8v-52.8L85.5,177z"/>
		<path d="M183.4,254h-11.3l-7-16.8h-39.5l-7,16.8h-11.3l32-75.2h12.3l17.7,41.9h-10.5l-13.4-32.4l-16.8,40.6h44.2L183.4,254z"/>
		<path d="M262.8,254.2h-11.7l-20.1-30.1h-15.9v30.1h-9.9v-38.4H236c9.4,0,15.9-6.1,15.9-14.6c0-8.7-6.5-14.5-15.9-14.5h-20.8v20.7
			h-9.9v-29.1h31.9c14.5,0,25,8.8,25,22.7c0,13.7-9.9,21.2-20.7,22.1L262.8,254.2z"/>
		<path d="M314.2,178.4c24.7,0,40.7,16.4,40.7,37.8c0,21.5-15.9,37.8-40.7,37.8h-27.1v-8.4h27.1c19.3,0,30.5-13.2,30.5-29.5
			s-10.8-29.5-30.5-29.5H297v50.7h-9.9v-59.1h27.1V178.4z"/>
		<path d="M379.3,253.9v-75.8h9.9v75.8H379.3z"/>
		<path d="M479,178.1v75.8h-9.5l-46.3-60.4v60.4h-9.9v-75.8h10.1l45.7,59.1v-59.1H479z"/>
	</g>
</g>
</svg>
